<svg xmlns="http://www.w3.org/2000/svg" width="500" height="500" viewBox="0 0 375 375"><defs><clipPath id="a"><path d="M14.723 61h345.55v229H14.723Zm0 0"/></clipPath></defs><path fill="#c2a987" d="M213.547 295.285c1.078 0 2.363-.293 2.363-1.68 0-.09-.015-.515-.015-.515l-.02-.45c-.012-.257-.094-1.687-.094-1.687q-.018-.335-.043-.7a1247 1247 0 0 0-.531-7.629l-.027-.354.289-.012c-.043-.54-.114-1.504-.196-2.602l-.113-1.484.403.027a50 50 0 0 0 3.718.133c7.356 0 14.438-1.422 17.617-3.539a9.6 9.6 0 0 1 3.438-1.426l1.137-.234-.825.82c-2.375 2.352-3.664 4.371-3.828 6-.41 4.05.325 7.742.86 10.438.324 1.648.586 2.953.515 3.886a.73.73 0 0 0 .188.59c.246.262.719.414 1.3.414 1.325 0 2.817-.765 3.024-2.05.43-2.598-1.074-10.762-1.09-10.844l-.039-.223 7.606-5.129.183.324a16.4 16.4 0 0 0 1.883 2.66l.223-.117.199.297c1.379 2.88 2.277 4.899 2.746 6.18 1.23 3.312 8.512 7.984 9.93 7.984.777 0 1.93-.61 2.34-1.484.246-.531.164-1.05-.25-1.547-1.458-1.75-4.426-5.023-6.208-6.375-.68-.516-.609-2.266-.39-6.176.246-4.402.582-10.433-.66-15.656l-.082-.336.289-.066a12.94 12.94 0 0 0-2.36-5.79l-.289-.398.469-.137c1.063-.312 2.23-.468 3.469-.468 4.363 0 9.246 1.933 13.969 3.804 1.605.637 3.265 1.297 4.863 1.86 1.55.547 3.11.824 4.629.824 3.832 0 6.238-1.762 6.406-2.32a.6.6 0 0 0-.14-.012c-.13 0-.368.023-.758.137-.48.14-1.07.21-1.762.21-5.914 0-17.942-5.011-22.84-7.163-1.887-.833-3.715-1.254-5.441-1.254-2.528 0-4.383.914-5.489 1.675l-.199.137-.27-.187-.187.277-.227-.2c-2.496-1.605-5.675-2.355-10.011-2.355-2.723 0-5.578.293-8.34.575-.941.097-1.926.144-2.965.144-1.156 0-2.418-.059-3.754-.176l-.441-.035.144-.418c.66-1.91 1.282-6.894 2.137-13.789 1.543-12.367 3.867-31.059 8.582-48.437l.066-.254h.301l.117-.516.68.035c.367 3.535.996 6.332 1.863 8.317 6.086 13.847 42.922 46.043 56.04 50.812.89.328 1.87.492 2.91.492 4.101 0 9.394-2.578 15.308-7.453l.192-.156.21.129c3.461 2.133 9.473 6.89 10.86 14.765.613 3.48 1.195 6.73 1.656 9.297l.024.13-.067.109c-5.41 9.125-4.426 15.82-2.992 18.34.535.933 1.207 1.472 1.848 1.472q.189 0 .37-.058c1.282-.418 8.477-9.848 17.106-22.43 9.297-13.543 14.746-22.649 14.649-23.621-.493-1.227-8.48-5.063-16.172-8.309l-.395-.168h-.023l-.094-.05a.54.54 0 0 0-.226-.075l-.036-.008-.035-.011c-2.89-1.078-6.836-5.149-9.633-8.375l-.171-.196.14-.215c1.93-3.039 3.04-5.468 3.04-6.671 0-4.5-25.282-16.125-40.388-23.075-4.867-2.238-9.07-4.172-11.484-5.418-10.055-5.18-12.293-12.777-13.281-26.82-.367-5.101-1.211-11.117-2.512-17.875l-.023-.14.078-.118c1.36-2.031 2.25-4.18 2.652-6.394l.047-.246.246-.032a20 20 0 0 0 2.285-.464l.223-.055.14.18c1.649 2.156 5.926 7.757 10.028 13.226 5.691 7.598 11.016 15.89 11.066 15.973.016.02 3.73 4.605 8.63 5.168 1.644.187 3.316.289 4.827.289 4.235 0 6.883-.77 7.262-2.113l.043-.145.137-.07c.27-.13.34-.243.344-.266.078-.508-.395-1.098-1.407-1.742l-1.058-.676 1.254.04a24 24 0 0 1 2.132.14c.051.008 3.61.625 6.774.625 2.765 0 4.437-.477 4.703-1.336l.027-.149.043-.175.172-.063c.36-.133.422-.234.422-.234.043-.27-.176-.914-2.195-1.903l-1.196-.586 1.332-.07c1.532-.078 3.426-.41 3.747-1.543.054-.203.066-.398.027-.617l-.04-.203s.18-.145.184-.145c-.043-.218-.46-.754-3.222-1.351a4 4 0 0 0-.703-.09l-.82-.024.593-.57c.8-.77 1.406-1.504 1.66-2.015l.055-.106.101-.05c.118-.06.196-.106.25-.141-.164-.098-.687-.297-2.277-.36h-.148c-.575 0-.961.149-1.086.418l-.082.176-.196.02a26 26 0 0 1-2.675.148c-.739 0-1.446-.043-2.11-.121-1.988-.234-5.277-.64-8.336-1.027l-.074-.012-.062-.035c-8.715-5.297-17.516-20.446-21.747-27.727l-.14-.238.203-.188q.229-.209.441-.425.51-.514.961-1.004l.145-.168c.387-.43.68-.785.93-1.13.07-.081.113-.14.152-.202.344-.47.617-.907.828-1.313a3 3 0 0 0 .164-.332c.035-.066.05-.11.066-.152l.106-.25.016-.055c.015-.043.03-.078.043-.121l.046-.152.04-.168c.039-.157.062-.29.066-.414.015-.102.012-.157.012-.211 0-.489-.16-.88-.497-1.192-.84-.777-1.683-1.71-2.507-2.765a35 35 0 0 1-1.403-1.918l-.68-1.02a3 3 0 0 1-.117-.195c-.117-.176-.25-.39-.382-.602a82 82 0 0 1-1.633-2.757 3 3 0 0 1-.102-.188 72 72 0 0 1-.734-1.344l-.324-.601q-.406-.734-.79-1.461a324 324 0 0 1-1.175-2.215l-.473-.89-.3-.548q-.405-.746-.797-1.457-.16-.27-.313-.558l-.008-.004-.047-.09-.066-.113c-.094-.164-.188-.32-.281-.477-.153-.27-.301-.512-.45-.75-.062-.105-.27-.437-.27-.437q-.173-.287-.347-.551a69 69 0 0 1-.746-1.156q-.473-.728-.988-1.532l-.242-.382c-.14-.223-.285-.442-.43-.668l-.3-.461a52 52 0 0 0-.997-1.496 94 94 0 0 0-1.348-1.941 49 49 0 0 0-1.21-1.634l-.047-.062c-.282-.36-.551-.703-.836-1.05l-.176-.216a6 6 0 0 0-.203-.25 31 31 0 0 0-.582-.676l-.09-.097v-.012c-.188-.207-.356-.394-.523-.574q-.076-.09-.141-.156a4 4 0 0 0-.313-.332 20 20 0 0 0-.699-.715l-.492-.473q-.327-.315-.652-.613l-.04-.02-.023-.023a5 5 0 0 0-.254-.23h-.031l-.098-.106-.035-.027h-.012l-.097-.098-.59-.48-.191-.149q-.146-.119-.297-.227c-.125-.097-.246-.183-.368-.27l-.16-.112a12 12 0 0 0-.52-.348 15.8 15.8 0 0 0-3.054-1.59s-.273-.105-.344-.129l-.238-.086c-.441-.144-.86-.261-1.266-.351a9.2 9.2 0 0 0-2.074-.235c-1.105 0-2.265.196-3.457.578l-.039.012-.039.004c-1.637.125-4.058 1.617-4.082 1.633l-.418.262-1.648-7.715.609.258a1.852 1.852 0 0 0 2.57-1.707c0-.266-.05-.512-.164-.754l-.074-.168.098-.157c.027-.046 2.828-4.652.773-7.941l-.25-.398.457-.118a4 4 0 0 1 1.04-.132c3.175 0 6.48 3.468 8.84 9.277 2.62 6.45 6.12 8.734 13.378 8.734 2.008 0 4.336-.183 7.117-.566a19 19 0 0 1 2.54-.176c7.28 0 11.167 4.55 13.738 7.567 1.062 1.242 1.976 2.316 2.601 2.316q.083 0 .164-.027c1.469-.493 1.574-12.313.828-23.528-2.777-1.394-4.906-2.02-6.886-2.02-2.47 0-4.66.93-7.973 2.344-1.938.825-4.133 1.758-6.942 2.747-1.867.656-3.613.988-5.187.988-4.867 0-7.574-3.102-9.96-5.84-1.282-1.469-2.493-2.852-3.907-3.629-1.488-.82-3-1.234-4.492-1.234-2.625 0-4.684 1.258-5.95 2.312l-.218.18-.22-.172c-1.495-1.184-3.222-1.781-5.14-1.781-1.328 0-2.375.3-2.8.441l-.012.422-.246.066c-1.508.422-2.985 1.54-4.38 3.32-.753.962-1.425 2.134-1.937 3.384l-.031.074-.062.055a.7.7 0 0 0-.254.527q0 .053.011.113l.02.09-.027.09c-.512 1.582-1.407 5.46 1.324 7.344.422.289.906.52 1.433.683l.34.11-.097.28c.394.165.828.274 1.32.337l.277.035.356 4.113-.32.05c-.61.095-1.094.216-1.364.29v.172l-.422-.086a15 15 0 0 0-3.23-.363c-2.965 0-5.871.937-8.633 2.785-1.617 1.086-3.395 2.62-5.29 4.566l-.105.102q-.189.199-.382.398c-.188.196-.372.39-.555.59a13 13 0 0 0-.484.527l-.614.672c-.125.149-.265.301-.402.453l-.067.079q-.364.416-.722.84l-.203.226-.028.039c-3.879 4.566-7.675 9.855-11.027 14.52l-1.137 1.585v.235h-.168l-.023.031q-.165.225-.305.426l-1.047 1.437c-.152.207-.695.942-.742 1.008l-.512.684-.27.363c-.19.25-.827 1.078-.827 1.078-.14.172-.27.34-.403.5-.074.098-.164.207-.254.32l-.054.07c-1.88 2.317-3.028 3.329-3.844 3.38-.05.004-.062.02-.07.027-.024.031-.14.223-.004.922l.078.41h-.418c-1.21 0-22.387-11.867-26.621-14.246-.106-.047-3.285-1.527-7.867-6.012-2.594-2.547-5.504-4.492-7.84-6.058-1.793-1.2-3.344-2.235-4.27-3.215-1.082-1.145-1.941-1.703-2.625-1.703-.539 0-1.043.37-1.539 1.129-.738 1.125.34 3.777 1.598 5.882l.266.45-.625.082.144.304-.465.07a42 42 0 0 0-2.148.364l-.254.047-.594.129q-.18.034-.363.082l-.227.054-.007-.007-.383.09c-.477.117-.97.246-1.453.39l-.122.035-.023-.008-.7.239c-.206.07-.413.144-.612.219v.101l-.266.008-.012.004-.09.004h-.304l-.024.156-.168.082a7.5 7.5 0 0 0-1.129.625c-1.914 1.32-1.601 3.227-1.246 4.25l.074.21.344-.151-.344.804c-.296.692-1.125 3.043.625 4.32l.38.278.109-.047.043.156.324.239h-.262c.156.578.992 3.433 2.696 4.77l.285.222.207-.137.066.559c.09.773.715 4.644 4.047 4.644.488 0 1.016-.008 1.582-.012.711-.007 1.477-.015 2.277-.015 3.786 0 8.47.187 11.118 1.644.835.461 2.18 1.743 4.035 3.52 6.136 5.86 17.558 16.77 30.59 16.77h.003c4.579-.012 10.872-1.93 15.356-3.536l.156-.054.14.085c.657.399 1.313.72 1.95.95l.36.133-.169.343c-2.964 6.04-6.113 12.707-9.441 19.766-3.031 6.41-6.16 13.043-9.434 19.8a141 141 0 0 0-3.554 8.024l-.227.559c-7.242 17.926-12.215 39.031-13.93 52l-.05.363-.36-.07c-3.668-.696-10.48-3.707-10.77-3.832l.153-.664c.004.004.336.015.863.015 4.024 0 6.72-.601 7.036-1.566.168-.512.027-.711-.016-.778-.457-.66-2.488-.757-5.297-.886-.523-.028-1.082-.051-1.668-.082-3.324-.18-5.578-3.301-8.988-8.02-2.043-2.82-4.578-6.332-7.992-10.035-4.739-5.152-10.809-6.234-15.07-6.234q-.6-.001-1.16.027h-.071l-.063-.023c-3.058-1.11-6.562-1.649-10.707-1.649-1.906 0-3.98.121-6.164.36l-.558.058v.004l-.164.02c-3.297.386-6.852 1.02-11.184 1.988-3.164.71-6.824 1.07-10.879 1.07-9.234 0-18.66-1.879-23.457-2.996l-.156-.039-.074-.145c-.016-.023-.668-1.062-2.446-1.062-.402 0-.836.055-1.293.16l-.289.184-.191-.239c-1.188-1.468-3.64-4.367-6.727-7.28l-.117-.106.02-.336h-.278l-.03-.313c-.24-2.449-1.087-5.52-5.552-7.562-1.668-.762-3.187-1.149-4.504-1.149-1.687 0-2.718.63-3.285 1.157l-.113.105-.156-.016a11 11 0 0 0-1.133-.062 9 9 0 0 0-.715.027c-9.695.809-13.437 10.114-15.238 14.586-.117.29-.414 1.016-.414 1.016l-.223.012c-.09.003-9.27.421-12.434 2.656l-.097.066-.117-.004c-.172-.008-.336-.008-.489-.008-.226 0-.414.004-.527.008-.211.215-.29.532-.32.77-.07.617.12 1.351.472 1.793l.07.082.008.11c.204 2.839 1.688 5.527 3.973 7.187l.285.207-.156.203c.152.031.297.05.441.07l.207.031.055.036c1.711 1.003 3.797 1.566 6.207 1.671 9.367.438 15.875 1.094 15.942 1.098l.156.016L44 220.953l-.113.195c-.2.336.59 1.977 1.797 3.415l.086.101-.008.137c-.27 4.86.117 11.625 3.476 16.289 1.59 2.2 4.067 4.3 7.164 6.074l.48.274-.456.312c-9.586 6.484-14.82 11.578-15.137 14.738-.512 5.028.398 9.602 1.063 12.946.402 2.03.718 3.632.636 4.78-.023.321.059.579.254.794.32.344.926.543 1.672.543 1.672 0 3.559-.977 3.824-2.613.528-3.223-1.336-13.344-1.351-13.446l-.051-.262 17.219-8.355.113.395c.254.894.477 1.777.652 2.625l.207-.207.18.527c2.106 6.312 3.453 11.176 4.008 14.457.672 3.98.93 6.805 1.117 8.863.254 2.813.36 3.977 1.176 4.356.652.304 1.93.632 3.195.632 1.371 0 3.004-.375 3.004-2.164 0-1.535-.64-10.71-1.953-28.043l-.027-.343.285-.024a28 28 0 0 1 .117-5.246l.035-.3.305-.005c5.113-.05 9.742-1.082 13.761-3.062 7.829-3.852 16.602-5.684 22.582-6.543l.395-.059v.286c.793-.258 1.758-.477 2.82-.633.797-.094 1.532-.16 2.211-.223l1.317-.125-1.09.75c-9.047 6.211-13.988 11.11-14.297 14.16-.477 4.696.746 8.856 1.73 12.196.684 2.32 1.223 4.152.942 5.43q-.116.533.144.863c.246.304.735.48 1.344.48 1.399 0 3.027-.879 3.297-2.508.523-3.23-1.34-13.355-1.36-13.457l-.046-.258 14.597-7.078.164.262.07.101c.274.395.36.528.391.63v.011l.489-.297c2.675 3.512 8.297 7.516 13.738 11.39 5.84 4.161 10.883 7.75 11.656 10.27.66 2.168.582 4.407.52 6.204-.059 1.71-.11 3.187.508 3.828.265.273.668.406 1.23.406.703 0 1.356-.285 1.934-.856l.214-.207.239.184c1.383 1.07 17.195 2.664 35.25 3.55l.273.016.051.266c.242 1.273.324 2.078.281 2.688a.73.73 0 0 0 .188.585c.246.266.718.418 1.3.418 1.325 0 2.82-.77 3.032-2.054a8 8 0 0 0 .07-1.325l-.004-.363.363.012c3.461.125 6.43.191 8.82.191 1.321 0 2.458-.02 3.38-.058l.324-.016.035.32c.11.973.184 1.805.25 2.512.223 2.434.32 3.215.914 3.496.52.242 1.543.504 2.55.504m-33.82-40.969c1.3 1.227 3.156 1.903 5.515 2.012.852.043 1.563.094 2.172.152l.379.04-.074.37c-.973 4.942-3.184 8.938-6.574 11.88-2.672 2.312-5.165 4.48-7.13 6.199l-.097.082h-.129c-8.309.035-12.926 2.703-14.941 4.289l-.703.555.148-.88c.348-2.093.422-4.53.21-6.867-.433-4.66-4.933-11.09-8.55-16.253-1.351-1.93-2.52-3.594-3.328-4.954-1.23-2.07-.477-5.347.477-9.496.765-3.343 1.636-7.14 1.796-11.414l.012-.332h.29a43 43 0 0 0-.25-3.87l.66-.169c2.687 6.496 3.937 13.88 4.468 17.031q.084.51.145.844c.515 2.914 2.144 4.485 2.695 4.485.027-.028.059-.243-.121-.715-.98-2.578.348-6.293.406-6.45l.305-.84.34.829c.043.105 4.441 10.812 6.629 12.394.613.442 1.296.688 1.921.688.559 0 1.012-.203 1.133-.508.098-.25-.039-.566-.386-.89-1.708-1.59-1.86-5.715-1.864-5.887l.64-.188c1.68 2.824 7.036 3.95 11.114 4.055l.238.008.079.222c.156.446.39.77.664.914l.125.067.043.136a5.7 5.7 0 0 0 1.078 1.973l.222.258-.156.133c.047.004.297.004.297.004Zm-103.157 3.63-.004-.005v.004Zm49.34-4.305q-.011-.005-.015-.004l-.055.047Zm-8.21-136.739a42 42 0 0 1-.388-1.476q-.076.763-.124 1.531Zm-.384-1.957q.087-.755.204-1.492l-.524.012c.098.488.203.984.32 1.48m0 0"/><path fill="#604848" d="M324.707 160.02c-1.11-.192-5.371-.95-7.445-1.758-2.446-.957-5.922-1.278-6.07-1.29a.288.288 0 0 0-.051.575c.035.004 3.543.324 5.914 1.25 1.972.773 5.73 1.473 7.21 1.73a1.6 1.6 0 0 1 .442-.507m1.203-3.508c-1.015-.008-2.62-.051-4.12-.235-2.427-.297-7.157-1.597-7.356-1.652a.287.287 0 0 1 .152-.555c.05.012 4.89 1.344 7.273 1.633 1.801.223 3.762.238 4.625.23a1.27 1.27 0 0 0-.574.579m-12.746 7.715c-3.851-.622-7.75-2.325-7.793-2.344a.29.29 0 0 1-.148-.38.29.29 0 0 1 .379-.148c.046.02 4.156 1.817 8.05 2.364-.218.11-.379.304-.488.508m-135.312 87.73c.222.711.59 1.43 1.148 2.094a.27.27 0 0 1 .207-.07c4.238.316 5.777-2.258 5.84-2.376a.293.293 0 0 1 .394-.109.293.293 0 0 1 .11.395c-.07.117-1.582 2.699-5.625 2.699-.145 0-.293-.016-.438-.024 1.196 1.125 3.04 1.985 5.739 2.106.808.043 1.52.09 2.152.152 3.95.367 4.793 1.106 4.902 1.223l.774 1.504s.593 1.265 1.636 3.12c1.004-.82 4.02-2.179 8.094-4.753.496-.305.985-.664 1.469-1.05a4.9 4.9 0 0 1-1.73-1.231c-4.837-5.246-9.524-15.653-7.872-18.532 0 0 .032-.046.094-.12a5.6 5.6 0 0 0-.883 0 9.7 9.7 0 0 0-3.277.847c-3.586 1.629-5.45 5.172-6.531 7.676-.278.644-.504 1.215-.692 1.672 0 0-3.347.078-4.937 1.285.836.027 1.898.16 2.094.668.328.851-.782 2.879-2.157 2.941a1 1 0 0 1-.511-.117m11.8-4.164a1.714 1.714 0 0 1 3.426 0 1.713 1.713 0 0 1-3.426 0m-1.234-3.492c0-.461.27-.836.605-.836.332 0 .602.375.602.836 0 .457-.27.828-.602.828-.335 0-.605-.371-.605-.828m19.48 35.734a.286.286 0 0 0 .204-.344c-.825-3.394-3.125-8.93-3.149-8.988a.29.29 0 0 0-.379-.152.286.286 0 0 0-.152.375c.016.039 1.098 2.637 2.035 5.347-3.516-1.742-8.074-8.277-8.125-8.347a.287.287 0 0 0-.398-.07q-.407-.576-.778-1.145c3.23-1.613 15.461-9.473 17.785-17.606 3.446.915 8.403 2.04 13.25 2.461 2.29.2 4.551.246 6.618.032 6.601-.676 13.593-1.403 18.613 1.836 0 0-.004 0-.004.004a.286.286 0 0 0 .098.394c.047.027 4.797 2.965 5.652 8.973.02.144.14.25.281.25q.022.001.043-.004.012-.001.024-.008c2.16 9.086-.418 20.617.925 21.637 1.922 1.46 4.993 4.906 6.262 6.43 1.465 1.753-.832 3.597-2.355 3.597-1.52 0-8.98-4.781-10.25-8.207-.563-1.52-1.672-3.934-2.735-6.152.024-.012.051-.008.075-.028a.29.29 0 0 0 .023-.406 18 18 0 0 1-.774-.96c-.335-.692-.652-1.333-.925-1.892l-.215.145c-.45-.789-.824-1.59-1.133-2.383a.3.3 0 0 0-.074-.262c-.016-.011-.028-.019-.04-.035-1.757-4.738-1.26-9.113-1.257-9.172.02-.16-.09-.3-.25-.32a.29.29 0 0 0-.32.25c-.008.059-.457 4.04.988 8.574-2.856-1.914-6.426-.629-6.594-.566a.29.29 0 0 0-.168.371.286.286 0 0 0 .371.168c.04-.012 4.07-1.46 6.746 1.04.336.882.746 1.776 1.25 2.66l-7.109 4.792s1.535 8.281 1.094 10.965c-.438 2.684-5.367 3.133-5.203.961.183-2.414-2.028-7.84-1.371-14.328.195-1.914 1.785-4.094 3.925-6.215a9.2 9.2 0 0 0-3.312 1.371c-4.024 2.684-13.567 4.047-21.55 3.465-.18-2.422-.376-5.008-.376-5.008l-.574.043.652 8.758a.283.283 0 0 0 .285.266h.024c.398 5.496.707 10.043.707 11 0 2.726-4.055 2.12-5.406 1.488-1.043-.485-.883-2.016-1.36-6.281a82 82 0 0 0-.648-4.606c-.203-1.2-.531-2.625-.946-4.168m-17.289-3.332c.18-1.8 2.16-4.113 4.918-6.512a55 55 0 0 1 2.344-1.921c.223.324 3.117 4.449 6.121 7l-7.906 3.84s1.14 6.152 1.176 9.57a9 9 0 0 1-.078 1.39c-.438 2.688-5.368 3.133-5.204.961.047-.652-.082-1.535-.277-2.594-.531-2.843-1.574-7.003-1.094-11.734m18.578-30.676a46 46 0 0 1 1.864 1.961c.195.059.437.137.715.219q-.204.311-.555.816c-.64-.808-1.324-1.851-2.024-2.996m44.731 7.38c1.973-1.36 5.758-2.876 11.262-.454 8.46 3.723 20.304 8.121 24.367 6.938 4.062-1.184-1.524 5.078-10.152 2.03-7.5-2.648-15.641-7.081-22.09-5.194-1.414-1.965-2.97-3.051-3.387-3.32M19.84 216.218c6 1.367 9.101-4.067 9.23-4.301a.29.29 0 0 1 .395-.11c.137.079.187.25.11.391-.028.055-2.74 4.813-7.872 4.813-.414 0-.851-.043-1.297-.11-.23-.035-.457-.066-.695-.12a.287.287 0 0 1-.168-.45.3.3 0 0 1 .297-.113m93.71 26.601c3.598-1.175 9.157-1.144 12.153-1.023.102.004.168.004.188.004a.288.288 0 1 1 0 .578l-.211-.008a66 66 0 0 0-1.735-.047c-1.523 5.656.91 9.23 1.832 10.574.207.309.328.489.38.633a.5.5 0 0 1 .023.137c.004.16-.125.309-.282.309h-.003c-.16 0-.286-.106-.286-.266-.023-.066-.175-.29-.308-.488-.035-.047-.074-.11-.114-.164-1.019-1.5-3.292-5.121-1.832-10.743-2.058-.011-4.539.07-6.777.41-1.02.157-1.992.364-2.848.641a.2.2 0 0 1-.09.016.29.29 0 0 1-.273-.2q-.005-.022-.004-.046a.286.286 0 0 1 .188-.317m-55.937-.449a.29.29 0 0 1 .492-.305c.055.094 5.762 9.352 7.47 17.934a.284.284 0 0 1-.196.324q-.013.008-.031.016-.031.005-.055.004a.29.29 0 0 1-.285-.23 34 34 0 0 0-.672-2.747c-2.168-7.601-6.672-14.914-6.723-14.996m18.956 15.92a.29.29 0 0 1-.285-.266 28 28 0 0 1-.012-3.941q.047-.698.118-1.332c.293-2.629.836-4.355.843-4.379a.29.29 0 0 1 .364-.187.29.29 0 0 1 .187.363c-.008.027-.531 1.672-.816 4.2a28 28 0 0 0-.11 5.233.29.29 0 0 1-.265.31zm60.528-51.215a.285.285 0 0 1 .351-.199c.113.035 10.09 3.023 11.84 18.918.14 1.242.23 2.555.258 3.96.008.161-.125.29-.285.298h-.004s-.008-.008-.016-.008a.276.276 0 0 1-.27-.273c-.37-18.934-11.562-22.31-11.675-22.336a.3.3 0 0 1-.2-.36m101.609-18.09c5.77-27.797 28.063-45.617 28.285-45.793a.29.29 0 0 1 .406.047.29.29 0 0 1-.046.407c-.223.171-22.036 17.62-27.95 44.882-.043.192-.09.38-.129.575a.29.29 0 0 1-.285.23q-.03-.001-.058-.008-.006-.001-.012-.008a.285.285 0 0 1-.211-.332m-85.281-93.347c.11.453.066.86-.07 1.222a.8.8 0 0 0 .062-.246c.16-1.5-.934-1.57-.934-1.57s-.058-.016-.152-.035c-.922-.668-2.64-.465-2.664-.465a.28.28 0 0 1-.309-.207c-.004-.016-.011-.027-.011-.043a.283.283 0 0 1 .246-.32c.02-.004.09-.012.195-.02.719-.055 3.203-.117 3.637 1.684m-14.781 6.191c.007-.008.125-.07.312-.172.48-.258 1.504-.773 2.836-1.312q.05.281.125.574c-1.484.605-2.563 1.172-2.879 1.352-.062.027-.105.054-.11.054a.287.287 0 0 1-.394-.101.29.29 0 0 1 .11-.395m8.308-2.996c1.625-.266 2.969-.477 4.059-.586a.25.25 0 0 1 .113-.086c.05-.02.727-.281 1.234-.793.543-.086.864-.21.993-.5-.2.535-.61.973-1.043 1.293 1.125-.015 1.84.168 2.18.66.35.508.566 1.438.257 2.368-.215.652-.773 1.523-2.152 2.046.89.125 1.605.454 2.05.977.438.508.567 1.16.364 1.789-.223.688-1.121 1.375-2.051 1.93q-.165.099-.328.191c.121-.004.23.004.336.016.105.011.219.015.308.043 1.043.304 1.696 1 1.786 1.906.093.953-.465 1.945-1.356 2.406-.316.164-.762.43-1.254.738q-.244.151-.5.313a.29.29 0 0 0-.234.148c-.805.52-1.649 1.082-2.293 1.52a5 5 0 0 1-.54-.336c1.247-.844 3.505-2.348 4.555-2.895a2 2 0 0 0 1.043-1.52c.223-.17.317-.355.266-.624-.238-1.242-1.129-1.031-1.129-1.031s-.097.004-.25.02a3 3 0 0 0-.258-.09c-1.23-.36-4.5 1.18-7.082 2.597q-.135-.251-.27-.52c1.372-.753 3.02-1.59 4.493-2.128a.27.27 0 0 1 .125-.114c.914-.37 3.172-1.445 3.89-2.406.598-.285.86-.527.774-.977-.27-1.394-1.27-1.16-1.27-1.16s-.128.008-.328.028c-.726-.309-1.742-.395-2.918-.207-1.628.261-4.316 1.207-6.574 2.078q-.088-.275-.18-.551c2.274-.875 4.981-1.828 6.665-2.098a8 8 0 0 1 1.68-.09c-.016-.023-.044-.039-.052-.066a.29.29 0 0 1 .18-.367c1.094-.375 1.61-.977 1.852-1.492.55-.278.789-.532.703-.98-.149-.79-.524-1.087-.84-1.192-.656-.703-3.559-.235-6.91.312-1.637.266-3.238.778-4.586 1.297q-.064-.288-.121-.57c1.363-.524 2.972-1.031 4.613-1.297m-7.21 8.188q.011-.012.034-.012c.235-.106 1.657-.719 3.457-1.426.059.188.118.367.176.555a130 130 0 0 0-3.433 1.406.29.29 0 0 1-.38-.145.285.285 0 0 1 .145-.378m3.237 5.421c.02-.015.055-.035.075-.05.312-.192 1.129-.696 2.203-1.297q.125.258.262.515c-.801.45-1.504.864-2.036 1.196-.062.043-.136.082-.199.125a.29.29 0 0 1-.394-.09.29.29 0 0 1 .09-.399m5.2 3.551a.28.28 0 0 1-.235-.125.284.284 0 0 1 .07-.398l.364-.25c.176.136.344.25.512.351-.328.223-.54.368-.547.371a.3.3 0 0 1-.164.051m64.675-10.07c1.887.863.395 5.578.395 5.578s3.535-1.09 2.906 3.621c-.629 4.707-6.601 5.492-6.68 2.977 0 0-3.456 3.515-5.968 1.406-1.84-1.547-.906-4.817-.27-6.465l.051-.062c.086-.106.176-.22.266-.329.125-.16.257-.328.386-.496l.27-.34.605-.796c.094-.125.192-.254.286-.383.148-.192.293-.39.445-.594.098-.133.195-.262.297-.398l.68-.93c.081-.11.163-.227.246-.336q.274-.381.562-.773l.305-.422.125-.18c.707-.395 3.46-1.828 5.093-1.078m13.747 4.695s-2.473 1.7-3.938 1.125c-1.469-.57-.543-4.21-.543-4.21s-2.633.98-2.363-2.614c.27-3.598 4.762-4.453 4.93-2.55 0 0 2.468-2.817 4.464-1.325 1.996 1.488.207 5.652.207 5.652s1.211-1.8 2.786-1.414c.578.14 1.066.414 1.406.77a8.3 8.3 0 0 1-.223 2.078c-1.988 1.05-3.73 3.078-4.898 4.7-2.098-.411-1.828-2.212-1.828-2.212m7.394-2.805q-.004.005-.008.004c.032-.168.059-.332.078-.5 0 .16-.023.329-.07.496m-7.324-21.632c1.144.523.238 3.382.238 3.382s2.145-.66 1.762 2.196c-.379 2.855-4 3.332-4.05 1.805 0 0-2.095 2.132-3.622.851-1.523-1.277.098-4.52.098-4.52s-.442.579-1.086.883l.011-.011c.075-.086.145-.172.22-.258q.397-.465.796-.918.206-.234.41-.461.3-.34.606-.672c.152-.164.304-.332.457-.492.195-.215.394-.422.59-.63.144-.147.289-.304.433-.448.016-.02.035-.035.05-.055 0 0 .005 0 .005-.004.437-.242 2.094-1.101 3.082-.648m14.453-6.063c.23 1.117 1.309 4.414 6.004 5.192l-.047.113s.031-.047.078-.11a13 13 0 0 0 2.113.165c.864 0 1.625-.11 2.301-.293.317.57.317 1.273-.148 2.015 0 0-2.477 4.684-4.942 4.41-2.464-.277-2.16-2.265-2.16-2.265s-2.472 1.695-3.937 1.125c-1.469-.574-.543-4.211-.543-4.211s-2.516.926-2.367-2.406c.296-.883.449-1.497.468-1.563a.27.27 0 0 0-.023-.184c.719-1.363 2.144-2.027 3.203-1.988m26.996 26.38c-1.937-.216-1.7-1.778-1.7-1.778s-1.94 1.332-3.093.883c-1.152-.45-.426-3.309-.426-3.309s-2.066.77-1.855-2.055c.21-2.824 3.742-3.5 3.875-2.004 0 0 1.937-2.21 3.508-1.043 1.57 1.172.164 4.446.164 4.446s.949-1.418 2.187-1.114c1.239.305 1.946 1.352 1.223 2.512 0 0-1.945 3.68-3.883 3.461m-24.914-3.063s-1.14 1.504-2.488 1.09c-1.352-.415-2.067-1.622-1.196-2.852 0 0 2.387-3.942 4.512-3.578 2.13.36 1.766 2.074 1.766 2.074s2.23-1.352 3.472-.781c1.247.57.262 3.683.262 3.683s2.332-.718 1.918 2.39a3.34 3.34 0 0 1-.562 1.481c-2.239-.257-5.426-.328-8.493-.214-.07-1.528.809-3.293.809-3.293m30.895-9.086c-3.106-.348-2.723-2.852-2.723-2.852s-3.113 2.137-4.961 1.418c-1.844-.723-.68-5.305-.68-5.305s-3.316 1.235-2.976-3.293c.34-4.527 5.996-5.605 6.21-3.21 0 0 .157-.18.426-.438a30 30 0 0 1 1.606 1.457c1.39 1.352 2.68 2.848 3.867 4.39l-.02.04s.012-.012.024-.032c.422.543.824 1.094 1.219 1.645.156.215.312.434.465.648q.456.652.89 1.297c.34.504.676 1.008.996 1.5-1.172 1.461-2.761 2.914-4.343 2.735m12.597 20.12c-2.617-.292-2.293-2.402-2.293-2.402s-2.625 1.801-4.18 1.196c-1.554-.61-.574-4.469-.574-4.469s-2.793 1.039-2.507-2.777c.285-3.813 5.05-4.723 5.23-2.707 0 0 .938-1.067 2.145-1.586v-.004c.386.726.777 1.469 1.171 2.21.262.489.524.973.79 1.462.351.652.699 1.304 1.066 1.953h-.004c-.117.347-.211.558-.211.558s.113-.164.313-.382v-.004a73 73 0 0 0 1.601 2.714q.208.335.418.665.048.074.098.156.291.447.59.886l.086.133c-.997 1.262-2.368 2.555-3.739 2.399m1.176 12.497q-.001.004-.008.008a.58.58 0 0 1-.383-.43s-1.242 1.887-2.562 1.16c-1.317-.726-.59-3.367-.59-3.367s-.574 1.18-1.547 1.078c-.976-.105-1.625-.828-1.195-1.785 0 0 1.094-3.004 2.594-3.043 1.496-.04 1.476 1.176 1.476 1.176s1.34-1.219 2.266-.996c.926.222.668 2.472.668 2.472s1.496-.8 1.629 1.371q.012.206-.004.399c-.297.265-.61.535-.922.8l-.395.333c-.336.277-.672.55-1.027.824m-23.79-8.164s2.134-3.114 4.118-3.106c1.98.004 2.543 4.696 2.543 4.696s2.649-2.344 3.961 2.004c1.316 4.347-3.57 7.386-4.633 5.23 0 0-1.62 4.43-4.64 3.582-3.024-.844-2.813-6.55-2.813-6.55s-.273 1.19-1.055 2.062l-.003.004q-.101-.379-.196-.758a50 50 0 0 1-.195-.727q-.104-.404-.215-.8a99 99 0 0 0-.508-1.848c-.035-.133-.066-.27-.105-.399a337 337 0 0 0-1.203-4.199c.398-.422.855-.738 1.379-.87 3.02-.798 3.566 1.679 3.566 1.679M62.189 205.55c.3.582.644 1.41.183 1.86-.492.476-1.621.109-2.434-.255.38.801.934 2.008 1.426 3.239.758 1.882 1.383 3.824 1.055 4.488a.57.57 0 0 1-.41.328c-.883.18-2.54-1.024-3.844-2.137-.281-.242-.55-.48-.789-.699.113.348.207.727.242 1.094.043.402.02.785-.125 1.097-.156.34-.441.567-.82.657a1 1 0 0 1-.223.027c-.32 0-.664-.152-1.02-.398-1.226-.856-2.577-2.903-3.37-4.239-.02.742-.149 1.637-.618 2.176-.285.332-.656.5-1.105.5-1.082 0-1.203-2.434-1.352-7.488-.136-4.703-.308-10.555-1.87-12.531a.29.29 0 0 1 .046-.407.29.29 0 0 1 .406.047c1.68 2.13 1.848 7.836 1.996 12.875.083 2.758.204 6.926.774 6.926a.85.85 0 0 0 .672-.297c.59-.684.496-2.367.41-2.957a.294.294 0 0 1 .195-.316.29.29 0 0 1 .344.136c1.293 2.383 3.574 5.625 4.582 5.383.211-.05.348-.156.43-.336.343-.742-.332-2.379-.621-2.949a.29.29 0 0 1 .086-.363.295.295 0 0 1 .375.027c1.5 1.488 4.195 3.785 5.082 3.61.402-.383-.895-4.047-2.836-8a.289.289 0 0 1 .398-.379c.984.542 2.262.976 2.516.726.02-.02.195-.23-.293-1.184-1.649-3.218-1.078-10.019-1.055-10.308a.284.284 0 0 1 .262-.258c.02 0 .031-.008.05-.004.16.012.278.153.262.313 0 .007-.008.09-.015.23-.086 1.219-.403 7.012 1.008 9.766m0 0"/><path fill="#493b3b" d="M238.816 65.441c-.246 0-.472.094-.648.239a1.02 1.02 0 0 0-.352.972 1.021 1.021 0 1 0 1-1.21m7.153 4.985c-.785-.27-1.23-1.04-.996-1.723s1.058-1.02 1.84-.75c.785.266 1.23 1.04.996 1.719-.235.683-1.059 1.02-1.84.754M192.523 184.7a144 144 0 0 1 3.563-8.043c6.89-14.222 13.23-28.058 18.875-39.57 4.441-9.059 8.445-16.672 11.945-21.89 0 0 .145-.262.406-.692a28 28 0 0 1 1.114-1.676c1.172-1.625 2.914-3.648 4.902-4.703a8 8 0 0 0 .219-2.07c-.027-2.672-1.11-5.16-1.305-5.586-.379-.285-2.117-1.781-2.05-5.102.058-2.527.835-3.219 2.03-4.27.548-.48 1.176-1.034 1.88-1.898 2.175-2.664 3.273-7.008 3.285-7.047a.28.28 0 0 1 .347-.207.28.28 0 0 1 .192.157c.02.062.035.125.02.187-.02.07-.173.684-.47 1.559-.523 1.554-1.492 3.957-2.925 5.718-.738.899-1.41 1.493-1.95 1.97-1.152 1.01-1.785 1.566-1.828 3.843-.07 3.316 1.782 4.605 1.856 4.66.043.027.078.07.098.11.09.18 1.77 3.695 1.34 7.167q-.031.248-.075.496h.004c.05-.019.106-.035.152-.054.106-.035.215-.067.325-.11.062-.015.117-.046.18-.062.015 0 .023-.008.035-.008 1.78-.543 4.253-.773 6.87-.82.274-.008.56-.02.84-.035 3.067-.11 6.258-.043 8.493.222.988.11 1.797.262 2.32.45 1.242.136 2.008.238 2.008.238s.113.015.328.07c-1.484-1.531-.07-4.289 1.074-6.504.367-.703.711-1.367.899-1.879.613-1.668-1.207-7.242-1.961-9.242a.27.27 0 0 1 0-.207c.027-.062.648-1.664 3.23-3.66a.295.295 0 0 1 .41.055.29.29 0 0 1-.058.406c-2.09 1.61-2.829 2.957-3 3.308.355.965 2.691 7.45 1.925 9.536-.207.55-.562 1.226-.925 1.945-1.086 2.094-2.43 4.695-1.121 5.91a.29.29 0 0 1 .023.406.25.25 0 0 1-.125.078 242 242 0 0 1 3.223 10.137 295 295 0 0 1 1.203 4.195q.053.201.101.403c.18.613.348 1.226.512 1.847.078.266.145.532.215.801.062.242.133.485.195.727.059.254.13.504.192.758l.007-.004c.063.234.118.469.18.703q.276 1.095.559 2.203c.36 1.434.965 2.547 1.773 3.367.262.27.55.512.856.727.234.156.476.304.734.433q.246.125.516.227l.27.105c.898.313 1.898.457 2.968.461.36 0 .726-.011 1.098-.047.18-.011.359-.035.546-.046.137-.024.29-.051.434-.07-.426 2.355-1.367 4.523-2.707 6.523 1.094 5.675 2.094 12.027 2.516 17.918.921 13.144 2.824 21.242 13.093 26.539 10.274 5.3 52.059 22.633 52.059 28.797 0 1.312-1.152 3.804-3.094 6.855-3.707 5.84-10.3 13.754-17.281 19.512-6.535 5.39-13.406 8.898-18.559 7.02-13.515-4.915-50.246-37.38-56.23-51-.934-2.126-1.543-5.032-1.895-8.415 5.918-27.265 27.727-44.71 27.95-44.886a.29.29 0 0 0 .046-.407.29.29 0 0 0-.406-.047c-.222.18-22.515 18-28.285 45.793a.29.29 0 0 0 .207.332c-7.305 26.942-8.84 56.786-10.723 62.247-4.847-.418-9.804-1.543-13.25-2.458a7 7 0 0 0 .118-.39s-.278-.54-.954-.852c2.094-5.058 3.708-13.043 2.438-25.234-1.469-14.14-11.082-26.61-24.02-37.93m-14.566 56c3.672-1.07 4.023-3.758 2.113-3.265-.379.093-.988.054-1.726-.09 1.719-12.996 6.785-34.352 13.953-52.086 12.766 11.21 22.223 23.523 23.676 37.433 1.261 12.125-.348 20.024-2.41 25-.415-.078-.915-.07-1.528.11 0 0-.097.152-.27.406q-.414-.124-.718-.219s-.703-.8-1.863-1.96c-1.07-1.747-2.18-3.727-3.266-5.462 3.578-1.27 5.047-2.671 5.129-4.785.105-2.492-.863-5.504-10.887-3.219-7.566 1.727-9.222 4.172-9.574 5.27-3.586 1.629-5.45 5.172-6.531 7.676-2.805.293-4.89-.649-6.32-1.73q.064-1.39.222-3.079m146.668-77.734c-1.059-.906-.559-1.918-.559-1.918s.047-.242.2-.52c.097-.175.238-.359.441-.507.39-.286 1.008-.418 1.973.003q.415.182.777.356c1.707.836 2.492 1.59 2.375 2.293-.031.187-.273.348-.633.48-1.199.438-3.762.512-4.574-.187m1.98-4.52c-1.175-.597-.828-1.468-.828-1.468s.008-.215.133-.465a1.27 1.27 0 0 1 .574-.578c.235-.118.543-.2.961-.188.223.004.477.031.762.094 2.367.508 3.523 1.074 3.508 1.734-.004.082-.063.16-.164.242-.754.594-3.906 1.157-4.946.63m-.503-4.152c-.899-.25-.73-.836-.73-.836s-.017-.172.077-.371c.14-.293.52-.649 1.563-.61 1.75.067 2.629.301 2.68.723.011.117-.196.274-.516.434-.828.41-2.426.844-3.074.66m-81.153-91.75c.2.437.723.789 1.207.988.055.02.102.043.145.055.351.125.656.164.793.105.18-.09.367-.652.496-1.16-.067.598-.012 1.387.582 1.91 1.082.946 2.21 1.16 2.305 1.25.105.09-.008 2.301 1.328 3.059 1.16.672 1.82.703 1.972.703h.028s2.968-4.789.773-8.305c2.922-.753 6.656 2.008 9.473 8.942 3.21 7.898 7.914 10.156 20.863 8.383 12.961-1.778 16.488 10.543 19.106 9.664 2.617-.875 1.046-24.074 1.046-24.074-8.898-4.536-10.726-1.083-22.242 2.96-11.515 4.047-13.773-5.707-18.773-8.457-5.028-2.761-9.004-.406-10.832 1.118-4.02-3.176-8.492-1.309-8.492-1.309s-.008.156-.016.398c-.027.918-.059 3.149.238 3.77m12.992-3.75c.098-.031 2.383-.875 4.73.305 1.829.914 3.153 2.77 3.942 5.511 2.325 8.07 5.489 10.215 12.532 8.504 2.527-.605 5.21-2.113 7.812-3.57 5.332-2.973 10.84-6.059 15.383-1.703.176.164.18.441.015.613a.44.44 0 0 1-.613.008c-4.074-3.914-9.074-1.117-14.363 1.844-2.649 1.476-5.39 3.007-8.035 3.652-1.555.379-2.922.559-4.137.559-5.437 0-7.691-3.668-9.422-9.668-.719-2.496-1.894-4.168-3.488-4.977-2.008-1.016-4.031-.277-4.05-.27a.44.44 0 0 1-.563-.246.44.44 0 0 1 .257-.562m55.286 107.902c-.684-.82-.305-1.789-.305-1.789s.058-.347.242-.68c.11-.203.27-.398.488-.507.262-.133.614-.137 1.082.125.172.094.329.191.48.285 1.153.73 1.669 1.418 1.56 2.094-.032.195-.231.375-.528.52-.86.425-2.512.562-3.02-.048m-160.867-69.33c-.402.063-.925.106-1.59.18-1.792.195-2.527-1.203-1.69-2.184.714-.84 2.694-.476 3.253-.355.094.02.152.035.152.035s1.094.07.934 1.57a.8.8 0 0 1-.063.246l-.003.008c-.13.29-.45.414-.993.5m-2.078 2.98c.512-1.179 3.168-1.296 3.168-1.296s.23-.051.508.039c.316.105.691.402.84 1.191.086.45-.152.703-.703.98-.375.192-.89.4-1.559.684-1.656.711-2.77-.414-2.254-1.597m.508 4.903c.375-.863 1.961-1.121 2.652-1.195.2-.02.329-.028.329-.028s1-.234 1.27 1.16c.085.45-.177.692-.774.977-.34.164-.793.344-1.36.586-1.558.668-2.601-.387-2.117-1.5m.172 4.64c.34-.788 1.812-1.007 2.406-1.066.153-.015.25-.02.25-.02s.89-.21 1.13 1.032c.05.27-.044.453-.267.625-.3.227-.835.43-1.632.77-1.387.593-2.32-.348-1.887-1.34m89.414-40.304c.176-.227.512-.496 1.148-.523.954-.043 1.809.605 2.028.785-1.426.55-2.613.062-3.176-.262m2.078 2.168c.02 0 .035-.004.055-.004.707-.133 1.277-.598 1.683-1.05-.097.491-.363 1.386-1.066 1.82-1 .613-1.344-.957-1.344-.957a.9.9 0 0 0 .414-.008c.04.113.137.199.258.199M38.332 203.19a1.71 1.71 0 1 1 .001 3.421 1.71 1.71 0 0 1-.001-3.42m153.035 46.313a1.71 1.71 0 1 1 0-3.421 1.71 1.71 0 0 1 0 3.42m0 0"/><g clip-path="url(#a)"><path fill="#442e09" d="M206.09 289.008c1.328 0 2.476-.02 3.406-.059l.149-.008-.016-.148a83 83 0 0 0-.649-4.613c-.187-1.11-.496-2.477-.921-4.07a.42.42 0 0 0 .18-.454c-.829-3.402-3.134-8.949-3.157-9.004a.43.43 0 0 0-.394-.261.427.427 0 0 0-.395.59c.113.269 1.059 2.566 1.918 5.003-3.43-1.93-7.719-8.07-7.766-8.136a.43.43 0 0 0-.347-.184.4.4 0 0 0-.243.078.423.423 0 0 0-.11.594c.134.191 3.001 4.3 5.997 6.902l-7.808 3.793.02.102c.007.062 1.136 6.183 1.167 9.547l.004.132.129.004c3.453.125 6.426.192 8.836.192m-14.25-.594c-.07-.379-.153-.777-.235-1.203-.539-2.707-1.273-6.414-.863-10.496.164-1.594 1.805-3.754 4.875-6.418l-.148-.23c-3.352 1.585-9.586 4.535-19.012 4.535q-.675.002-1.367-.02c-.445-.012-.875-.012-1.305-.012-8.45.032-13.176 2.766-15.238 4.39l-.043.036-.008.05c-.441 2.642-1.246 4.602-2.336 5.669l-.113.113.125.094c1.812 1.41 21.863 2.984 35.523 3.656l.176.008Zm135.762-3.187q.263 0 .515-.082c2.942-.95 27.965-37.348 31.617-45.13.504-1.077.504-1.382.446-1.53-.739-1.848-12.774-7.055-16.446-8.606l-.457-.191h.004c.008 0-.14-.098-.398-.133a1.3 1.3 0 0 0-.188-.012c-.98 0-3.066.988-5.992 7.613-.61 1.375-.781 3.235-1.004 5.586-.48 5.125-1.14 12.137-6.691 20.84-.238.371-.461.738-.68 1.106-5.523 9.316-4.48 16.214-2.996 18.824.633 1.105 1.438 1.715 2.27 1.715m-112.055-2.489a.43.43 0 0 0 .406-.457l-.66-8.894-.852.062.008.137s.528 7.023.653 8.758a.43.43 0 0 0 .425.398Zm35.7-2.207c.065 0 .116-.027.155-.047.043-.015.086-.023.125-.058a.427.427 0 0 0 .04-.602c-.247-.285-.5-.594-.766-.953a16 16 0 0 1-1.133-1.73 18 18 0 0 1-1.113-2.332.43.43 0 0 0-.121-.344c-1.762-4.727-1.258-9.05-1.25-9.094a.43.43 0 0 0-.375-.476h-.004c-.266 0-.442.16-.47.375-.003.039-.44 3.847.888 8.277-.993-.578-2.153-.871-3.453-.871a9.3 9.3 0 0 0-2.95.488.426.426 0 0 0 .297.797c.012-.004 1.176-.422 2.645-.422 1.613 0 2.945.484 3.96 1.434a17 17 0 0 0 1.227 2.625 17.2 17.2 0 0 0 1.977 2.789c.078.09.195.144.32.144m8.257-17.344c.258-.058.398-.261.371-.48a13.5 13.5 0 0 0-2.457-6.062c-1.473-2.043-3.113-3.153-3.426-3.356l-.11-.07a.424.424 0 0 0-.578.14.43.43 0 0 0-.054.328c.027.11.098.204.195.262.047.031 4.743 2.946 5.582 8.875a.43.43 0 0 0 .422.367Zm-53.469-5.84c3.719 0 7.48-3.827 7.754-5.71.082-.578-.148-.977-.652-1.125-.496-.149-1.094-.664-1.817-1.575-.566-.71-1.207-1.66-2.015-2.98a151 151 0 0 1-1.434-2.406c-.574-.973-1.168-1.98-1.746-2.91 3.504-1.274 4.973-2.688 5.063-4.856.035-.82-.02-2.012-.872-2.898-.82-.856-2.199-1.274-4.207-1.274-1.593 0-3.605.274-5.98.817-7.457 1.699-9.266 4.086-9.68 5.36l-.097.296.285-.129a9.8 9.8 0 0 1 3.242-.836q.205-.017.422-.016h.195c-1.61 3.125 3.227 13.524 7.926 18.625.52.563 1.117.989 1.777 1.262.57.238 1.188.356 1.836.356m-26.11-2.62c3.993 0 5.579-2.485 5.743-2.766a.426.426 0 0 0-.738-.426c-.016.031-1.34 2.336-5.012 2.336-.227 0-.457-.012-.703-.027h-.004a.42.42 0 0 0-.3.101.4.4 0 0 0-.145.305.4.4 0 0 0 .101.3c.074.087.18.137.293.141.106.016.215.016.328.016l.137.008c.102.004.2.012.3.012m-1.558-2.512c.66-.031 1.348-.5 1.836-1.254.45-.684.621-1.422.445-1.875-.18-.469-.902-.715-2.218-.758q-.201-.01-.38-.008c-.386 0-.663.02-.663.02l-.043.004-.031.027c-.696.543-.704 1.691-.418 2.527.195.559.511.977.894 1.18.16.09.344.137.535.137Zm10.653-6.945c.41 0 .746-.434.746-.973 0-.535-.336-.969-.746-.969s-.743.434-.743.969c0 .539.332.973.743.973M16.375 209.516c.66-.032 1.344-.5 1.836-1.254.445-.684.621-1.422.445-1.88-.172-.44-.867-.695-2.074-.75a12 12 0 0 0-.508-.01c-.398 0-.68.019-.68.019l-.042.004-.032.023c-.32.25-.52.648-.578 1.164-.086.746.145 1.61.578 2.145.285.351.633.539 1 .539Zm19.5-7.266c.574 0 1.043-.605 1.043-1.348 0-.742-.469-1.347-1.043-1.347-.578 0-1.047.605-1.047 1.347 0 .743.469 1.348 1.047 1.348m179.21-65.102c5.138-10.48 8.817-17.226 11.935-21.878.007-.008.152-.27.414-.692a25 25 0 0 1 1.105-1.672l.125-.176-.21-.039c-1.934-.375-1.724-1.984-1.716-2.054l.047-.313-.262.18c-.015.012-1.789 1.219-3.171 1.219q-.365.001-.641-.11c-1.106-.433-.703-3.07-.453-4.047l.062-.257-.246.093c-.004 0-.312.114-.691.114q-.64-.002-1.016-.403c-.387-.422-.547-1.156-.469-2.187.176-2.32 2.145-3.403 3.422-3.403.723 0 1.184.32 1.235.856l.027.32.211-.242c.016-.016 1.52-1.715 3.07-1.715.438 0 .844.14 1.203.41 1.895 1.41.184 5.45.164 5.489l.243.132c.007-.015.968-1.41 2.226-1.41q.21 0 .414.051c.551.137 1.012.39 1.336.734l.242.258-.004-.355c-.027-2.586-1.015-4.973-1.316-5.64l-.016-.032-.03-.02c-.345-.257-2.063-1.71-1.993-4.992.055-2.469.82-3.144 1.98-4.164.575-.508 1.196-1.058 1.895-1.914 2.004-2.453 3.106-6.324 3.305-7.074.023-.094.082-.14.148-.14.086.015.121.046.14.085l.118.258.129-.25c.695-1.316 2.039-1.918 2.996-1.918l.246.008-.031-.168a3 3 0 0 1-.051-.344l-.008-.105-.101-.028a15.5 15.5 0 0 0-3.336-.37c-3.063 0-6.059.964-8.903 2.862-1.644 1.106-3.449 2.665-5.363 4.63l.164.218c.227-.129 1.39-.766 2.348-.766q.352.001.605.114c.852.39.407 2.453.16 3.219l-.078.25.25-.079c.004 0 .2-.058.453-.058.368 0 .657.113.852.34.3.343.398.937.29 1.765-.235 1.75-1.75 2.54-2.75 2.54-.49 0-1.013-.188-1.032-.72l-.008-.32-.227.23c-.011.012-1.21 1.22-2.402 1.22-.383 0-.73-.13-1.027-.38-1.395-1.163.062-4.206.125-4.335l-.23-.153a3.4 3.4 0 0 1-.759.676l-.093-.078-.219.258.012.008c-3.93 4.609-7.723 9.894-11.07 14.554l-1.204 1.672.18.203c.687-.383 2.45-1.27 3.918-1.27.402 0 .754.071 1.047.204 1.75.805.332 5.367.316 5.414l-.078.25.254-.078s.34-.102.777-.102c.625 0 1.118.196 1.461.59.512.582.676 1.586.489 2.98-.391 2.942-2.938 4.266-4.622 4.266-.84 0-1.75-.336-1.78-1.27l-.009-.324-.226.23c-.02.02-2.031 2.036-4.035 2.036a2.66 2.66 0 0 1-1.75-.64c-1.746-1.47-.895-4.583-.23-6.31l-.235-.136c-1.715 2.113-2.86 3.16-3.5 3.2a.57.57 0 0 0-.422.214c-.188.242-.219.672-.098 1.313.758 3.867 7.239 14.601 13.77 18.547.683.414 1.367.746 2.031.992l.117.039Zm54.337-2.062c.39 0 .754-.016 1.11-.05l.542-.048.446-.07a20 20 0 0 0 2.343-.473c.793-.21 1.625-.472 2.469-.785l.61-.226a34 34 0 0 0 2.433-1.055c.637-.3 1.246-.61 1.816-.914a48 48 0 0 0 2.95-1.719c.39-.25.765-.488 1.132-.73.051-.04.098-.07.153-.102.32-.219.64-.441.949-.66a42 42 0 0 0 1.574-1.172l.012-.008.695-.547.332-.28-.175-.212q-.37.306-.754.613l-.215.165a.45.45 0 0 1-.227-.297l-.07-.317-.18.27c-.008.011-.847 1.265-1.816 1.265q-.293 0-.563-.152c-1.207-.668-.527-3.184-.52-3.21l-.257-.099c-.004.012-.508 1.008-1.309 1.008a1 1 0 0 1-.105-.008c-.5-.05-.895-.273-1.086-.605-.16-.281-.16-.621.004-.98.012-.04 1.086-2.93 2.473-2.961l.07-.004c.43 0 .758.113.972.336.297.296.293.695.293.699l-.007.32.238-.215c.012-.011 1.098-.984 1.933-.984q.106.001.208.02c.66.16.628 1.73.562 2.324l-.027.261.23-.125c.004 0 .242-.129.524-.129.539 0 .843.47.902 1.391q.012.165 0 .317-.413.37-.848.734l.055.133.086.11.156-.13q.117-.086.223-.18a70 70 0 0 0 .73-.66l.086-.082a4 4 0 0 0 .25-.234l.047-.04q.24-.221.461-.448c.336-.336.664-.676.969-1.012l.152-.172c.395-.441.695-.809.953-1.164.059-.063.121-.145.172-.227.34-.464.629-.921.848-1.351.07-.125.137-.246.187-.371.024-.051.047-.11.07-.168l.094-.219.032-.094q.029-.074.05-.156a1 1 0 0 0 .047-.16l.028-.102c.062-.257.09-.418.097-.574.012-.066.012-.152.012-.234 0-.621-.219-1.14-.652-1.547a23 23 0 0 1-2.457-2.711 32 32 0 0 1-1.383-1.89l-.106-.157-.117.148c-.848 1.079-2.125 2.364-3.41 2.364q-.1 0-.207-.012c-.824-.09-1.43-.379-1.793-.852-.484-.628-.379-1.386-.379-1.394l.047-.313-.262.18c-.015.012-1.902 1.297-3.367 1.297-.254 0-.484-.04-.68-.117-1.43-.559-.5-4.266-.488-4.305l.063-.254-.247.09c-.003 0-.332.121-.734.121q-.685 0-1.09-.433c-.41-.446-.578-1.227-.496-2.325.184-2.472 2.277-3.625 3.637-3.625.773 0 1.262.344 1.316.922l.028.32.21-.242c.012-.007.934-1.054 2.102-1.558l.137-.059-.547-1.023-.293-.54q-.41-.751-.809-1.472c-.117-.203-.226-.402-.336-.598l-.101-.175a27 27 0 0 0-.29-.489 20 20 0 0 0-.448-.754c-.059-.097-.27-.433-.27-.433a18 18 0 0 0-.351-.563q-.365-.55-.747-1.152c-.316-.484-.644-.996-.984-1.523l-.246-.387q-.211-.334-.43-.672l-.406-.625-.117.152c-.992 1.23-2.488 2.696-3.977 2.696q-.123 0-.246-.012c-.988-.113-1.715-.461-2.152-1.031-.578-.754-.453-1.657-.453-1.664l.047-.313-.262.18c-.02.015-2.262 1.539-4.012 1.539q-.458 0-.816-.14c-1.711-.673-.61-5.095-.598-5.141l.063-.254-.247.093c-.003 0-.394.141-.878.141-.551 0-.993-.172-1.313-.52-.496-.535-.695-1.468-.598-2.777.223-2.95 2.73-4.324 4.352-4.324.93 0 1.523.414 1.586 1.11l.027.327.215-.25c.004 0 .082-.093.235-.246l.082-.082.097-.093.106-.106v-.004c-.04-.039-.07-.07-.11-.101l-.097-.079-.004.008-.407-.336-.203-.156q-.157-.124-.316-.242l-.367-.27-.16-.109a13 13 0 0 0-.536-.363 16.3 16.3 0 0 0-3.148-1.637l-.14-.05c-.075-.028-.145-.06-.223-.083l-.223-.082a13 13 0 0 0-1.332-.37 9.6 9.6 0 0 0-2.176-.247c-1.156 0-2.367.203-3.605.602l.039.23c-.008.82-.219 6.367-5.05 7.672l-.169.047.082.152c.313.578.262 1.227-.148 1.879-.028.05-2.325 4.36-4.606 4.36a2 2 0 0 1-.195-.012c-.777-.086-1.344-.356-1.688-.801-.453-.59-.355-1.297-.355-1.305l.047-.312-.262.175c-.016.012-1.793 1.22-3.18 1.22-.234 0-.449-.036-.632-.106-1.332-.524-.465-4.016-.454-4.051l.063-.254-.246.09c-.004 0-.305.11-.68.11-.418 0-.758-.134-1.008-.391-.37-.391-.539-1.059-.496-1.993l-.265-.05c-.559 1.648-1.512 3.968-2.907 5.675-.738.895-1.398 1.48-1.93 1.95-1.148 1.011-1.835 1.613-1.874 3.949-.07 3.246 1.707 4.625 1.91 4.77q.042.03.055.062c.02.035 1.761 3.57 1.328 7.09q-.001.25-.067.476l-.078.278.266-.114.226-.078.246-.086a1 1 0 0 0 .094-.03.2.2 0 0 1 .067-.024c1.632-.5 3.933-.774 6.875-.828.277-.008.562-.02.847-.036l.137-.004-.004-.14c-.02-.367.02-.774.113-1.25 0 0 .141-.555.157-.602.027-.093.05-.175.086-.254.015-.066.035-.113.05-.156a9 9 0 0 1 .375-.93l-.218-.164-.047.055q-.054.066-.16.172a4 4 0 0 1-.293.27.5.5 0 0 1-.106.082 2.5 2.5 0 0 1-.578.351c-.094.04-.137.059-.188.07-.058.02-.125.04-.187.055a.4.4 0 0 1-.137.023c-.094.012-.164.02-.238.02q-.094.001-.188-.016c-.09-.02-.156-.03-.222-.05-.711-.22-1.223-.653-1.406-1.196-.157-.46-.055-.96.289-1.445.027-.043 2.164-3.543 4.109-3.543q.134 0 .262.023c.664.11 1.14.372 1.41.77.36.523.242 1.129.238 1.137l-.062.308.27-.164c.015-.008 1.5-.894 2.675-.894q.393 0 .676.129c.926.421.445 2.68.18 3.511l-.079.25.25-.074c.004 0 .223-.066.5-.066.399 0 .715.125.93.375.328.375.434 1.023.313 1.93-.067.519-.247 1-.536 1.425l-.129.188.227.027c1 .11 1.793.266 2.29.441 1.273.145 2.038.247 2.038.247.004.003.11.015.309.066l.277.074a241 241 0 0 1 3.219 10.121l.07.227.164-.172c.422-.445.852-.715 1.313-.832a4.3 4.3 0 0 1 1.082-.152 2.286 2.286 0 0 1 2.312 1.726l.07.309.18-.262c.02-.031 2.11-3.047 3.996-3.047 1.84.008 2.41 4.535 2.414 4.582l.032.262.199-.176c.008-.004.687-.598 1.492-.598.98 0 1.734.856 2.238 2.536.606 1.996-.175 3.468-.695 4.168-.707.957-1.754 1.597-2.605 1.597-.348 0-.813-.11-1.067-.633l-.144-.289-.11.305c-.015.035-1.347 3.594-3.754 3.594-.238 0-.484-.035-.726-.106-2.883-.8-2.711-6.347-2.711-6.406l-.27-.035c-.004.012-.273 1.164-1.027 1.996l-.047.055.758 2.976c.351 1.418.96 2.57 1.808 3.434q.388.395.875.742c.25.168.493.313.747.445q.256.124.53.23l.27.106c.887.305 1.899.465 3.02.473m-10.457-48.797q.077.002.125.063c.05.066.035.156-.035.214-2.078 1.598-2.852 2.973-3.04 3.356l-.027.05.02.055c1.008 2.711 2.55 7.75 1.926 9.442-.184.5-.5 1.113-.829 1.761l-.09.168c-1.1 2.133-2.48 4.786-1.09 6.075.063.058.067.156.016.21l-.14.044-.004.039-.152-.157c-1.422-1.468-.024-4.171 1.101-6.347.371-.715.715-1.38.902-1.895.758-2.058-1.933-9.265-1.96-9.34a.12.12 0 0 1 0-.105c.12-.29.828-1.777 3.187-3.602a.15.15 0 0 1 .09-.03m11.465 14.332c.105 0 .215.012.32.035.645.16 1.125.524 1.316.996.168.407.106.86-.18 1.313-.023.039-1.824 3.402-3.593 3.402q-.076-.001-.152-.008c-.606-.066-1.043-.277-1.309-.617-.348-.453-.27-.996-.27-1l.047-.312-.261.175c-.012.012-1.407.954-2.48.954-.184 0-.352-.028-.493-.082-.844-.336-.531-2.391-.336-3.153l.063-.254-.247.09c0 .004-.242.09-.535.09q-.491-.001-.777-.309c-.297-.32-.418-.89-.36-1.691.141-1.809 1.672-2.652 2.669-2.652.546 0 .898.242.933.644l.027.32.211-.242c.012-.011 1.188-1.332 2.391-1.332.34 0 .652.11.934.317.058.05.105.082.14.125.125.117.219.246.301.402.078.145.129.293.16.434l.043.187c.012.11.024.184.031.266.012.191.004.383 0 .574l-.015.18.125.12-.137-.019c-.02.145-.035.29-.062.426l-.047.23c-.063.29-.14.551-.211.77l-.051.148c-.066.2-.121.348-.14.403l.242.133a4 4 0 0 1 .27-.32l.128-.13q.097-.094.219-.183c.086-.07.168-.13.258-.18a1.6 1.6 0 0 1 .34-.16c.078-.027.152-.05.238-.066.078-.016.152-.024.25-.024m-66.38 11.617-.218-.168-.387.493.215.171Zm.88-1.14-.223-.168-.605.797.218.168c.2-.258.399-.524.61-.797m84.949-.121-.102-.16-.23.152.23-.121-.218.136.039.063.156-.008-.113.074Zm-84.223-.852-.222-.168-.442.594.223.168Zm83.707.031a77 77 0 0 1-.84-1.386l-.238.14q.416.703.844 1.395Zm-82.726-1.367-.223-.16.207.183-.223-.164-.668.91.223.165Zm.804-1.11-.222-.16-.563.774.223.164Zm80.008.301c0-.003.11-.16.297-.37l.067-.075s-.118-.2-.145-.254l-.148-.281-.106.3c-.117.34-.207.548-.207.548Zm-.847-2.656s-.618-1.136-.786-1.457l-.246.13.547 1.01.242.45ZM221.55 89.223l-.207-.184-.406.457.207.184Zm55.117-.485a67 67 0 0 0-.461-.652l-.227.164q.236.322.465.648Zm-54.055-.68-.203-.19-.457.495.203.188Zm1.02-1.078-.196-.19-.437.452.203.192Zm51.383-.418-.004-.097-.04-.043a47 47 0 0 0-1.261-1.578q-.294-.351-.594-.696l-.055-.058c-.187-.219-.375-.422-.558-.625l-.156-.168q-.148-.165-.309-.328a42 42 0 0 0-.71-.727l-.227-.215-.192.196.11-.082-.098.097c1.273 1.239 2.566 2.707 3.84 4.36l.078-.059.125.098Zm-27.602-1.351-.34-.05-.074.097-.047.11.242.132Zm22.598-3.895.164-.16s-.14-.125-.164-.14l-.176.21.23-.14-.175.191.093.078Zm-26.75-5.261c2.093 0 3.945-.907 4.023-.946a.43.43 0 0 0 .192-.57.42.42 0 0 0-.383-.238.5.5 0 0 0-.192.043c-.07.035-1.777.851-3.656.851-.746 0-1.422-.129-2.012-.382a.425.425 0 0 0-.559.219c-.077.253.024.476.22.562.457.199.949.328 1.507.398.317.043.598.063.86.063m-.727-4.172c.617-.113 1.211-.48 1.758-1.09a5.3 5.3 0 0 0 .715-1 .425.425 0 0 0-.38-.621.4.4 0 0 0-.241.074 4.3 4.3 0 0 1-.887.473c-.41.16-.836.242-1.262.242-.781 0-1.406-.27-1.797-.496a2.6 2.6 0 0 1-.332-.219.43.43 0 0 0-.27-.098.44.44 0 0 0-.331.157.43.43 0 0 0 .058.601c.012.008 1.114.899 2.7.899q.427 0 .847-.086a1.9 1.9 0 0 1-.734.328.43.43 0 0 0-.344.496l.008.035.031.047a.405.405 0 0 0 .38.266Zm8.192-.95a.43.43 0 0 0 .402-.285c.008-.015.14-.37.52-.5a.9.9 0 0 1 .308-.05c.36 0 .809.164 1.305.472a.4.4 0 0 0 .226.067.41.41 0 0 0 .36-.203.425.425 0 0 0-.137-.586c-.64-.399-1.23-.602-1.75-.602-.211 0-.414.031-.606.102-.77.273-1.02.992-1.03 1.02a.43.43 0 0 0 .402.566m-9.375-2.269a.43.43 0 0 0 .324-.707.42.42 0 0 0-.293-.144c-.309-.024-.492-.106-.512-.18-.047-.156.191-.692.973-1.27 1.27-.937 1.652-2.203 1.691-2.343l.012-.082c.004-.036.043-1.801-2.57-2.055h-.004c-.258 0-.442.172-.461.387a.43.43 0 0 0 .383.465c1.656.156 1.793.976 1.8 1.136-.05.137-.402 1.102-1.36 1.809-.765.562-1.503 1.437-1.284 2.191.097.328.394.727 1.27.79Zm3.843-1.48c.29 0 .567-.227.676-.551a1 1 0 0 0 .043-.164q.048.071.09.16a.423.423 0 0 0 .57.2.42.42 0 0 0 .215-.247.4.4 0 0 0-.02-.324q-.363-.745-1.007-.934a1.4 1.4 0 0 0-.403-.058c-.457 0-.812.207-.851.23a.42.42 0 0 0-.192.266.4.4 0 0 0 .051.32.42.42 0 0 0 .281.2c-.101.382.055.765.372.874q.082.029.175.028m2.133-1.86q.149-.001.238-.101c.098-.114.13-.297.09-.582-.113-.887-1.793-1.45-2.472-1.45a.7.7 0 0 0-.262.043c-.16.004-.254.051-.32.13q-.146.173-.086.507c.054.328.355.383.707.441.445.075 1.05.176 1.664.82.035.032.246.192.441.192m-7.2-.203c.286 0 .567-.226.677-.555.007-.015.011-.035.015-.05l.02.043a.43.43 0 0 0 .52.293.424.424 0 0 0 .3-.52c-.008-.031-.2-.723-.824-.98a1.3 1.3 0 0 0-.477-.09q-.458-.001-.988.308a.426.426 0 0 0-.148.586c.07.121.195.2.336.207-.036.34.12.637.394.73q.082.029.176.028m0 0"/></g><path fill="#b67f9a" d="M43.59 220.973c.254-.45 1.531-1.078 3.562-2.024 2.028-.953 4.813-2.23 8.078-3.992.067-.031.137-.066.2-.11.351.25.695.403 1.015.403a1 1 0 0 0 .227-.027c.379-.09.664-.32.82-.657.149-.312.168-.699.125-1.097.188-.125.367-.262.547-.395 1.305 1.11 2.961 2.313 3.844 2.14a.6.6 0 0 0 .41-.331c.328-.664-.297-2.61-1.05-4.488 3.831-3.555 6.648-7.344 6.648-7.344 3.093-.762 4.175 1.054 4.183 1.07a12.4 12.4 0 0 1-.683 1.785c5.601 3.805 20.328 11.946 37.007 5.883 3.567-1.297 6.606-3.894 9.079-7.738a32.5 32.5 0 0 0 2.265-4.246c8.262-18.512 5.246-51.887-.367-65.844-2.402-5.973-3.191-12.649-2.5-18.848-.844-3.586-1.23-7.105-1.105-10.441.296-7.856 3.39-13.973 8.492-16.785 3.644-2.008 7.328-2.442 10.945-1.297 3.898 1.242 7.152 4.172 9.563 7.035.882.14 1.703.582 2.207.969a.284.284 0 0 1 .055.406.28.28 0 0 1-.4.055c-.019-.012-.124-.098-.296-.2a5 5 0 0 0-.953-.476c.152.191.308.387.457.586l.047.055-.614.144c-.015-.02-.027-.039-.05-.062-.243-.309-.489-.625-.75-.946-.68-.054-1.395.125-1.97.852.427.152.849.316 1.25.488.036.016.067.027.102.043-.332.09-.632.18-.89.254a10 10 0 0 0-.758-.273 2.8 2.8 0 0 0-.18.562c-.242 1.04-.132 2.445.188 4.047.039.187.074.379.12.574.33 1.465.798 3.059 1.31 4.672.058.18.12.367.175.555.266.793.528 1.593.79 2.375.316.937.663 1.765 1.027 2.504.082.18.172.355.261.52.934 1.753 1.961 2.905 2.86 3.546q.28.198.539.332l.137.078c.414.184.773.242 1.004.153.523-.215.804-.672.957-1.06a.26.26 0 0 1 .023-.288c.039-.07.102-.2.172-.395a.28.28 0 0 1 .234-.152c.172-.11.34-.211.496-.316a8 8 0 0 1-.187.62v.008c-.004.07-.184 1.594-1.485 2.118a1.2 1.2 0 0 1-.46.086q-.447 0-.993-.258a4 4 0 0 1-.43-.235 6 6 0 0 1-.511-.343c-.918-.711-1.934-1.899-2.86-3.614a21 21 0 0 1-1.332-3.125c-.261-.78-.523-1.566-.777-2.347-.058-.188-.117-.367-.176-.555-.523-1.621-.992-3.207-1.316-4.664a9 9 0 0 1-.125-.574c-.313-1.528-.441-2.895-.281-3.992a4 4 0 0 1 .281-1.02 27 27 0 0 0-3.285-.828c-5.973-1.14-11.188.766-15.086 5.508-3.184 3.875-5.152 9.343-5.793 15.246 2.77 11.523 10.715 25.21 26.726 35.66 2.7 1.766 5.524 3.582 8.25 5.336 13.649 8.797 28.157 18.144 39.918 28.445 12.938 11.32 22.551 23.79 24.02 37.93 1.27 12.191-.344 20.176-2.438 25.234a2.1 2.1 0 0 1 .954.852 7 7 0 0 1-.118.39c-2.324 8.133-14.554 15.993-17.785 17.606-.441.223-.719.324-.781.305-.508-.215-2.387-3.223-2.008-3.993.051-.101.168-.218.324-.351 1-.82 4.02-2.18 8.094-4.754.496-.305.985-.664 1.469-1.05 4.867 2.023 11.387-5.47 8.844-6.223-.567-.172-1.207-.766-1.883-1.622.226-.332.414-.605.55-.812.173-.258.27-.41.27-.41.613-.18 1.113-.184 1.528-.11 2.062-4.976 3.671-12.875 2.41-25-1.453-13.91-10.91-26.222-23.676-37.433-11.758-10.32-26.32-19.7-40.004-28.516-2.727-1.758-5.55-3.574-8.258-5.344-9.293-6.062-16.824-13.992-21.793-22.933-2.086-3.75-3.68-7.637-4.758-11.48-.367 5.617.442 11.527 2.547 16.761 5.656 14.043 8.684 47.652.367 66.293a33 33 0 0 1-2.074 3.93c-2.582 4.168-5.797 6.98-9.61 8.36a36.4 36.4 0 0 1-12.57 2.214c-6.14 0-11.53-1.496-15.57-3.125a49.7 49.7 0 0 1-9.312-4.98c-5.227 10.171-24.235 19.464-24.89 19.23-.208-.07-.56-.414-.954-.883-.988-1.176-2.207-3.172-1.828-3.812m79.39-121.328c4.04-4.915 9.446-6.887 15.63-5.707a27 27 0 0 1 3.46.874c.035-.054.067-.117.11-.164.558-.703 1.234-1 1.933-1.058-2.312-2.664-5.36-5.3-8.957-6.445-3.457-1.106-6.984-.684-10.492 1.25-4.914 2.71-7.906 8.648-8.187 16.304-.098 2.633.128 5.574.746 8.7.84-5.29 2.78-10.133 5.757-13.754m29.985 8.492q-.001-.104-.008-.207-.165.099-.328.191c.121-.004.23.004.336.016m104.723-48.785a.426.426 0 0 0 .554.25c.02-.008 2.047-.743 4.055.273 1.594.8 2.77 2.477 3.488 4.973 1.73 6.004 3.985 9.668 9.426 9.668 1.21 0 2.578-.184 4.137-.559 2.64-.64 5.382-2.176 8.03-3.656 5.29-2.957 10.29-5.754 14.364-1.836a.44.44 0 0 0 .613-.012.436.436 0 0 0-.015-.613c-4.54-4.356-10.05-1.274-15.383 1.707-2.598 1.453-5.285 2.957-7.816 3.57-7.04 1.707-10.204-.437-12.528-8.508-.789-2.742-2.117-4.597-3.941-5.511-2.348-1.18-4.637-.34-4.735-.301a.43.43 0 0 0-.25.555m0 0"/></svg>